<svg width="1440" height="900" viewBox="0 0 1440 900" fill="none" xmlns="http://www.w3.org/2000/svg">
  <rect width="1440" height="900" rx="28" fill="#F7F6F2"/>
  <rect x="0" y="0" width="1440" height="56" rx="28" fill="#EEECE7"/>
  <circle cx="28" cy="28" r="8" fill="#FF5F57"/>
  <circle cx="54" cy="28" r="8" fill="#FFBD2E"/>
  <circle cx="80" cy="28" r="8" fill="#28C840"/>
  <rect x="112" y="14" width="168" height="28" rx="14" fill="#FFFFFF" stroke="#D9D9DD"/>
  <text x="132" y="33" fill="#2C2C2C" font-family="Inter, Arial, sans-serif" font-size="13" font-weight="600">release-notes.md</text>
  <rect x="0" y="56" width="286" height="808" fill="#FFFFFF" stroke="#D9D9DD"/>
  <text x="28" y="104" fill="#2C2C2C" font-family="Inter, Arial, sans-serif" font-size="18" font-weight="650">MDive</text>
  <text x="42" y="152" fill="#616161" font-family="Inter, Arial, sans-serif" font-size="14">README.md</text>
  <text x="42" y="190" fill="#616161" font-family="Inter, Arial, sans-serif" font-size="14">PRODUCT.md</text>
  <rect x="28" y="212" width="230" height="34" rx="8" fill="#E8F0FE"/>
  <text x="48" y="234" fill="#1863DC" font-family="Inter, Arial, sans-serif" font-size="14" font-weight="600">release-notes.md</text>
  <rect x="286" y="56" width="1154" height="808" fill="#FBFAF7"/>
  <rect x="340" y="104" width="740" height="704" rx="18" fill="#FFFFFF" stroke="#D9D9DD"/>
  <g font-family="Inter, Arial, sans-serif">
    <text x="396" y="176" fill="#1F2933" font-size="34" font-weight="750">Release Notes</text>
    <text x="396" y="228" fill="#616161" font-size="16">v1.0.1 聚焦 PDF 导出、未保存保护和标签栏体验。</text>
    <rect x="396" y="282" width="158" height="38" rx="19" fill="#1863DC"/>
    <text x="424" y="306" fill="#FFFFFF" font-size="14" font-weight="650">导出 PDF</text>
    <rect x="570" y="282" width="136" height="38" rx="19" fill="#F7F6F2" stroke="#D9D9DD"/>
    <text x="598" y="306" fill="#2C2C2C" font-size="14" font-weight="650">预览模式</text>
    <text x="396" y="390" fill="#1F2933" font-size="23" font-weight="700">更新内容</text>
    <text x="396" y="438" fill="#2C2C2C" font-size="16">• PDF 按 A4 分页导出，压缩后体积更可控</text>
    <text x="396" y="480" fill="#2C2C2C" font-size="16">• 新建未命名文件关闭时触发保存弹窗</text>
    <text x="396" y="522" fill="#2C2C2C" font-size="16">• 标签过多时自动压缩，并提供完整标题提示</text>
  </g>
  <rect x="1110" y="104" width="280" height="430" rx="18" fill="#FFFFFF" stroke="#D9D9DD"/>
  <text x="1140" y="154" fill="#1F2933" font-family="Inter, Arial, sans-serif" font-size="18" font-weight="700">全文搜索</text>
  <rect x="1140" y="184" width="220" height="38" rx="10" fill="#F7F6F2" stroke="#D9D9DD"/>
  <text x="1162" y="208" fill="#616161" font-family="Inter, Arial, sans-serif" font-size="14">PDF 导出</text>
  <rect x="1140" y="256" width="220" height="72" rx="12" fill="#F7F6F2"/>
  <text x="1160" y="284" fill="#2C2C2C" font-family="Inter, Arial, sans-serif" font-size="14" font-weight="650">release-notes.md</text>
  <text x="1160" y="310" fill="#616161" font-family="Inter, Arial, sans-serif" font-size="12">2 处匹配</text>
  <rect x="1140" y="346" width="220" height="72" rx="12" fill="#F7F6F2"/>
  <text x="1160" y="374" fill="#2C2C2C" font-family="Inter, Arial, sans-serif" font-size="14" font-weight="650">PRODUCT.md</text>
  <text x="1160" y="400" fill="#616161" font-family="Inter, Arial, sans-serif" font-size="12">5 处匹配</text>
  <rect x="1110" y="564" width="280" height="164" rx="18" fill="#FFFFFF" stroke="#D9D9DD"/>
  <text x="1140" y="614" fill="#1F2933" font-family="Inter, Arial, sans-serif" font-size="18" font-weight="700">导出确认</text>
  <text x="1140" y="650" fill="#616161" font-family="Inter, Arial, sans-serif" font-size="14">MDive_Release.pdf</text>
  <rect x="1140" y="676" width="118" height="36" rx="18" fill="#1863DC"/>
  <text x="1170" y="699" fill="#FFFFFF" font-family="Inter, Arial, sans-serif" font-size="14" font-weight="650">保存</text>
  <rect x="0" y="864" width="1440" height="36" fill="#EEECE7"/>
  <text x="24" y="887" fill="#616161" font-family="Inter, Arial, sans-serif" font-size="13">MDive · 潜入你的 Markdown 工作区</text>
</svg>
