<svg width="1440" height="900" viewBox="0 0 1440 900" fill="none" xmlns="http://www.w3.org/2000/svg">
  <rect width="1440" height="900" rx="28" fill="#F7F6F2"/>
  <rect x="0" y="0" width="1440" height="56" rx="28" fill="#EEECE7"/>
  <circle cx="28" cy="28" r="8" fill="#FF5F57"/>
  <circle cx="54" cy="28" r="8" fill="#FFBD2E"/>
  <circle cx="80" cy="28" r="8" fill="#28C840"/>
  <rect x="112" y="14" width="154" height="28" rx="14" fill="#FFFFFF" stroke="#D9D9DD"/>
  <text x="132" y="33" fill="#2C2C2C" font-family="Inter, Arial, sans-serif" font-size="13" font-weight="600">PRODUCT.md</text>
  <rect x="276" y="14" width="122" height="28" rx="14" fill="#F7F6F2" stroke="#D9D9DD"/>
  <text x="296" y="33" fill="#616161" font-family="Inter, Arial, sans-serif" font-size="13">README.md</text>
  <rect x="1276" y="14" width="34" height="28" rx="14" fill="#FFFFFF" stroke="#D9D9DD"/>
  <text x="1287" y="34" fill="#616161" font-family="Inter, Arial, sans-serif" font-size="15">☾</text>
  <rect x="0" y="56" width="286" height="808" fill="#FFFFFF"/>
  <rect x="0" y="56" width="286" height="808" stroke="#D9D9DD"/>
  <text x="28" y="102" fill="#2C2C2C" font-family="Inter, Arial, sans-serif" font-size="18" font-weight="650">md-editor</text>
  <rect x="20" y="128" width="246" height="34" rx="8" fill="#F7F6F2"/>
  <text x="42" y="150" fill="#2C2C2C" font-family="Inter, Arial, sans-serif" font-size="14" font-weight="600">src</text>
  <text x="42" y="190" fill="#616161" font-family="Inter, Arial, sans-serif" font-size="14">components</text>
  <text x="64" y="226" fill="#616161" font-family="Inter, Arial, sans-serif" font-size="14">Viewer</text>
  <rect x="42" y="246" width="210" height="32" rx="8" fill="#E8F0FE"/>
  <text x="64" y="267" fill="#1863DC" font-family="Inter, Arial, sans-serif" font-size="14" font-weight="600">MarkdownViewer.tsx</text>
  <text x="42" y="314" fill="#616161" font-family="Inter, Arial, sans-serif" font-size="14">src-tauri</text>
  <text x="42" y="350" fill="#616161" font-family="Inter, Arial, sans-serif" font-size="14">README.md</text>
  <text x="42" y="386" fill="#616161" font-family="Inter, Arial, sans-serif" font-size="14">PRODUCT.md</text>
  <rect x="286" y="56" width="578" height="808" fill="#FBFAF7"/>
  <rect x="864" y="56" width="576" height="808" fill="#FFFFFF"/>
  <line x1="864" y1="56" x2="864" y2="864" stroke="#D9D9DD"/>
  <rect x="318" y="86" width="514" height="42" rx="10" fill="#FFFFFF" stroke="#D9D9DD"/>
  <text x="340" y="112" fill="#2C2C2C" font-family="Inter, Arial, sans-serif" font-size="14" font-weight="650">源码</text>
  <rect x="894" y="86" width="514" height="42" rx="10" fill="#F7F6F2" stroke="#D9D9DD"/>
  <text x="916" y="112" fill="#2C2C2C" font-family="Inter, Arial, sans-serif" font-size="14" font-weight="650">预览</text>
  <g font-family="Menlo, Monaco, monospace" font-size="14">
    <text x="332" y="166" fill="#93939F">1</text>
    <text x="368" y="166" fill="#1863DC"># MDive — 墨潜</text>
    <text x="332" y="204" fill="#93939F">2</text>
    <text x="368" y="204" fill="#616161">&gt; 潜入你的 Markdown 工作区</text>
    <text x="332" y="242" fill="#93939F">3</text>
    <text x="368" y="242" fill="#2C2C2C">## 核心亮点</text>
    <text x="332" y="280" fill="#93939F">4</text>
    <text x="368" y="280" fill="#2C2C2C">- 工作区优先</text>
    <text x="332" y="318" fill="#93939F">5</text>
    <text x="368" y="318" fill="#2C2C2C">- 三档视图切换</text>
    <text x="332" y="356" fill="#93939F">6</text>
    <text x="368" y="356" fill="#2C2C2C">- Mermaid 图表渲染</text>
    <text x="332" y="394" fill="#93939F">7</text>
    <text x="368" y="394" fill="#2C2C2C">```mermaid</text>
    <text x="332" y="432" fill="#93939F">8</text>
    <text x="368" y="432" fill="#616161">graph LR</text>
    <text x="332" y="470" fill="#93939F">9</text>
    <text x="368" y="470" fill="#616161">A[编辑] --&gt; B[预览]</text>
  </g>
  <g font-family="Inter, Arial, sans-serif">
    <text x="916" y="174" fill="#1F2933" font-size="32" font-weight="700">MDive — 墨潜</text>
    <text x="916" y="220" fill="#616161" font-size="17">潜入你的 Markdown 工作区</text>
    <text x="916" y="288" fill="#1F2933" font-size="23" font-weight="700">核心亮点</text>
    <circle cx="926" cy="330" r="4" fill="#1863DC"/>
    <text x="944" y="336" fill="#2C2C2C" font-size="16">工作区文件夹为核心，多标签并排查看</text>
    <circle cx="926" cy="370" r="4" fill="#1863DC"/>
    <text x="944" y="376" fill="#2C2C2C" font-size="16">源码 / 分栏 / 预览三档视图切换</text>
    <circle cx="926" cy="410" r="4" fill="#1863DC"/>
    <text x="944" y="416" fill="#2C2C2C" font-size="16">Mermaid、图片、PDF 内嵌预览</text>
  </g>
  <rect x="916" y="462" width="360" height="160" rx="12" fill="#F7F6F2" stroke="#D9D9DD"/>
  <rect x="958" y="520" width="96" height="42" rx="8" fill="#E8F0FE" stroke="#AFC8F8"/>
  <text x="982" y="546" fill="#1863DC" font-family="Inter, Arial, sans-serif" font-size="14" font-weight="650">编辑</text>
  <rect x="1138" y="520" width="96" height="42" rx="8" fill="#EFE9FF" stroke="#C8B6FF"/>
  <text x="1162" y="546" fill="#7C3AED" font-family="Inter, Arial, sans-serif" font-size="14" font-weight="650">预览</text>
  <path d="M1064 541H1128" stroke="#616161" stroke-width="2"/>
  <path d="M1120 533L1128 541L1120 549" stroke="#616161" stroke-width="2" fill="none"/>
  <rect x="0" y="864" width="1440" height="36" fill="#EEECE7"/>
  <text x="24" y="887" fill="#616161" font-family="Inter, Arial, sans-serif" font-size="13">MDive · 潜入你的 Markdown 工作区</text>
  <text x="1110" y="887" fill="#616161" font-family="Inter, Arial, sans-serif" font-size="13">PRODUCT.md · 已保存</text>
</svg>
